<svg xmlns="http://www.w3.org/2000/svg" viewBox="0 0 512 512" width="100%" height="100%">
  <defs>
    <linearGradient id="authSuiteGrad" x1="0%" y1="0%" x2="100%" y2="100%">
      <stop offset="0%" stop-color="#34d399" />
      <stop offset="100%" stop-color="#06b6d4" />
    </linearGradient>
    
    <filter id="shadow" x="-20%" y="-20%" width="140%" height="140%">
      <feDropShadow dx="0" dy="16" stdDeviation="24" flood-color="#10b981" flood-opacity="0.3" />
    </filter>
  </defs>

  <rect x="48" y="48" width="416" height="416" rx="104" fill="url(#authSuiteGrad)" filter="url(#shadow)" />

  <path d="M256 130 L150 170 V280 C150 370 220 420 256 440 C292 420 362 370 362 280 V170 L256 130 Z" 
        fill="none" stroke="#030712" stroke-width="32" stroke-linejoin="round" stroke-linecap="round" />

  <rect x="210" y="260" width="92" height="76" rx="20" fill="#030712" />
  
  <path d="M224 260 V220 C224 202 238 188 256 188 C274 188 288 202 288 220 V260" 
        fill="none" stroke="#030712" stroke-width="28" stroke-linecap="round" />

  <circle cx="256" cy="290" r="12" fill="url(#authSuiteGrad)" />
  <path d="M251 298 H261 L265 320 H247 Z" fill="url(#authSuiteGrad)" />
</svg>
